<svg width="103" height="89" viewBox="0 0 103 89" fill="none" xmlns="http://www.w3.org/2000/svg">
<path fill-rule="evenodd" clip-rule="evenodd" d="M0 10C0 4.47715 4.47715 0 10 0H68C73.5229 0 78 4.47715 78 10V16H0V10ZM0 20H78V47.3805C75.8675 47.7917 73.8499 48.5256 72 49.5292V46H55V63H61.5989C61.2075 64.6024 61 66.277 61 68C61 68.6746 61.0318 69.3417 61.094 70H10C4.47715 70 0 65.5229 0 60V20ZM24 25H7V42H24V25ZM7 46H24V63H7V46ZM48 25H31V42H48V25ZM31 46H48V63H31V46ZM72 25H55V42H72V25Z" fill="#D6336C"/>
<path fill-rule="evenodd" clip-rule="evenodd" d="M82 89C93.598 89 103 79.598 103 68C103 56.402 93.598 47 82 47C70.402 47 61 56.402 61 68C61 79.598 70.402 89 82 89ZM82 84C90.8366 84 98 76.8366 98 68C98 59.1634 90.8366 52 82 52C73.1634 52 66 59.1634 66 68C66 76.8366 73.1634 84 82 84Z" fill="#D6336C"/>
<path fill-rule="evenodd" clip-rule="evenodd" d="M82 89C93.598 89 103 79.598 103 68C103 56.402 93.598 47 82 47C70.402 47 61 56.402 61 68C61 79.598 70.402 89 82 89ZM82 84C90.8366 84 98 76.8366 98 68C98 59.1634 90.8366 52 82 52C73.1634 52 66 59.1634 66 68C66 76.8366 73.1634 84 82 84Z" fill="#D6336C"/>
<rect x="81" y="56" width="4" height="15" fill="#D6336C"/>
<rect x="70" y="72" width="4" height="15" transform="rotate(-90 70 72)" fill="#D6336C"/>
</svg>
