<svg width="78" height="92" viewBox="0 0 78 92" fill="none" xmlns="http://www.w3.org/2000/svg">
<path d="M68 0H10C4.47715 0 0 4.47715 0 10V60C0 65.5229 4.47715 70 10 70H68C73.5229 70 78 65.5229 78 60V10C78 4.47715 73.5229 0 68 0Z" fill="#1C7ED6"/>
<path d="M23.0209 91.4249L44.4137 49.2115L65.2343 70.0321L23.0209 91.4249Z" fill="#1C7ED6"/>
<path d="M49.4884 19.7894C46.8871 17.2872 43.47 15.9976 39.8546 16.1299C32.9214 16.4054 27.2668 22.2695 27.2447 29.2137C27.2337 32.289 28.3139 35.2872 30.287 37.646C33.1308 41.0631 34.696 45.3729 34.696 49.793C34.696 49.793 34.3984 51.8212 35.8424 51.8212H44.925C46.4021 51.8212 46.0714 49.793 46.0714 49.793C46.0714 45.4721 47.6586 41.1953 50.6678 37.4256C52.5307 35.0778 53.5227 32.256 53.5227 29.2578C53.5227 25.6534 52.0898 22.2805 49.4884 19.7894ZM48.8711 35.9927C45.5974 40.0931 43.8448 44.7667 43.7787 49.5284H36.9887C36.9226 44.6675 35.181 39.9388 32.0506 36.18C30.4303 34.229 29.5374 31.76 29.5484 29.2247C29.5705 23.493 34.2331 18.654 39.9538 18.4226C42.941 18.3123 45.7628 19.3815 47.9011 21.4428C50.0506 23.504 51.23 26.2817 51.23 29.2578C51.219 31.7379 50.4143 34.0637 48.8711 35.9927Z" fill="white"/>
<path d="M55.5071 12.2608C55.0551 11.8089 54.3277 11.8089 53.8867 12.2608L51.087 15.0606C50.6351 15.5125 50.6351 16.24 51.087 16.6809C51.5389 17.1218 52.2664 17.1328 52.7073 16.6809L55.5071 13.8811C55.959 13.4402 55.959 12.7127 55.5071 12.2608Z" fill="white"/>
<path d="M44.9695 53.3862H35.7987C35.1594 53.3862 34.6523 53.9043 34.6523 54.5326C34.6523 55.1719 35.1704 55.6789 35.7987 55.6789H44.9695C45.6088 55.6789 46.1159 55.1609 46.1159 54.5326C46.1159 53.9043 45.5978 53.3862 44.9695 53.3862Z" fill="white"/>
<path d="M43.2388 57.7073H37.5402C36.9008 57.7073 36.3938 58.2253 36.3938 58.8536C36.3938 59.4929 36.9119 60 37.5402 60H43.2388C43.8782 60 44.3852 59.4819 44.3852 58.8536C44.3852 58.2253 43.8671 57.7073 43.2388 57.7073Z" fill="white"/>
<path d="M40.3839 12.2498C41.0232 12.2498 41.5303 11.7318 41.5303 11.1035V7.1464C41.5303 6.507 41.0122 6 40.3839 6C39.7556 6 39.2375 6.5181 39.2375 7.1464V11.1035C39.2375 11.7428 39.7446 12.2498 40.3839 12.2498Z" fill="white"/>
<path d="M29.6809 16.692C30.1329 16.2401 30.1329 15.5126 29.6809 15.0717L26.8812 12.2719C26.4292 11.82 25.7018 11.82 25.2609 12.2719C24.8199 12.7239 24.8089 13.4514 25.2609 13.8923L28.0606 16.692C28.5125 17.1329 29.24 17.1329 29.6809 16.692Z" fill="white"/>
<path d="M60.6213 26.2377H56.6642C56.0249 26.2377 55.5178 26.7557 55.5178 27.384C55.5178 28.0123 56.0359 28.5304 56.6642 28.5304H60.6213C61.2606 28.5304 61.7677 28.0123 61.7677 27.384C61.7677 26.7557 61.2496 26.2377 60.6213 26.2377Z" fill="white"/>
<path d="M24.1035 26.2377H20.1464C19.507 26.2377 19 26.7557 19 27.384C19 28.0123 19.5181 28.5304 20.1464 28.5304H24.1035C24.7428 28.5304 25.2498 28.0123 25.2498 27.384C25.2498 26.7557 24.7428 26.2377 24.1035 26.2377Z" fill="white"/>
</svg>
