<svg width="100" height="100" viewBox="0 0 100 100" fill="none" xmlns="http://www.w3.org/2000/svg">
<g clip-path="url(#clip0)">
<rect x="10" y="7" width="78" height="70" rx="10" fill="#1953C2"/>
<path d="M33.0209 98.4249L54.4137 56.2115L75.2343 77.0321L33.0209 98.4249Z" fill="#1953C2"/>
<path d="M59.4884 26.7894C56.8871 24.2872 53.47 22.9976 49.8546 23.1299C42.9214 23.4054 37.2668 29.2695 37.2447 36.2137C37.2337 39.289 38.3139 42.2872 40.287 44.646C43.1308 48.0631 44.696 52.3729 44.696 56.793C44.696 56.793 44.3984 58.8212 45.8424 58.8212H54.925C56.4021 58.8212 56.0714 56.793 56.0714 56.793C56.0714 52.4721 57.6586 48.1953 60.6678 44.4256C62.5307 42.0778 63.5227 39.256 63.5227 36.2578C63.5227 32.6534 62.0898 29.2805 59.4884 26.7894V26.7894ZM58.8711 42.9927C55.5974 47.0931 53.8448 51.7667 53.7787 56.5284H46.9887C46.9226 51.6675 45.181 46.9388 42.0506 43.18C40.4303 41.229 39.5374 38.76 39.5484 36.2247C39.5705 30.493 44.2331 25.654 49.9538 25.4226C52.941 25.3123 55.7628 26.3815 57.9011 28.4428C60.0506 30.504 61.23 33.2817 61.23 36.2578C61.219 38.7379 60.4143 41.0637 58.8711 42.9927V42.9927Z" fill="white"/>
<path d="M65.5071 19.2608C65.0551 18.8089 64.3277 18.8089 63.8867 19.2608L61.087 22.0606C60.6351 22.5125 60.6351 23.24 61.087 23.6809C61.5389 24.1218 62.2664 24.1328 62.7073 23.6809L65.5071 20.8811C65.959 20.4402 65.959 19.7127 65.5071 19.2608Z" fill="white"/>
<path d="M54.9695 60.3862H45.7987C45.1594 60.3862 44.6523 60.9043 44.6523 61.5326C44.6523 62.1719 45.1704 62.6789 45.7987 62.6789H54.9695C55.6088 62.6789 56.1159 62.1609 56.1159 61.5326C56.1159 60.9043 55.5978 60.3862 54.9695 60.3862Z" fill="white"/>
<path d="M53.2388 64.7073H47.5402C46.9008 64.7073 46.3938 65.2253 46.3938 65.8536C46.3938 66.4929 46.9119 67 47.5402 67H53.2388C53.8782 67 54.3852 66.4819 54.3852 65.8536C54.3852 65.2253 53.8671 64.7073 53.2388 64.7073Z" fill="white"/>
<path d="M50.3839 19.2498C51.0232 19.2498 51.5303 18.7318 51.5303 18.1035V14.1464C51.5303 13.507 51.0122 13 50.3839 13C49.7556 13 49.2375 13.5181 49.2375 14.1464V18.1035C49.2375 18.7428 49.7446 19.2498 50.3839 19.2498Z" fill="white"/>
<path d="M39.6809 23.692C40.1329 23.2401 40.1329 22.5126 39.6809 22.0717L36.8812 19.2719C36.4292 18.82 35.7018 18.82 35.2609 19.2719C34.8199 19.7239 34.8089 20.4514 35.2609 20.8923L38.0606 23.692C38.5125 24.1329 39.24 24.1329 39.6809 23.692V23.692Z" fill="white"/>
<path d="M70.6213 33.2377H66.6642C66.0249 33.2377 65.5178 33.7557 65.5178 34.384C65.5178 35.0123 66.0359 35.5304 66.6642 35.5304H70.6213C71.2606 35.5304 71.7677 35.0123 71.7677 34.384C71.7677 33.7557 71.2496 33.2377 70.6213 33.2377Z" fill="white"/>
<path d="M34.1035 33.2377H30.1464C29.507 33.2377 29 33.7557 29 34.384C29 35.0123 29.5181 35.5304 30.1464 35.5304H34.1035C34.7428 35.5304 35.2498 35.0123 35.2498 34.384C35.2498 33.7557 34.7428 33.2377 34.1035 33.2377V33.2377Z" fill="white"/>
</g>
<defs>
<clipPath id="clip0">
<rect width="100" height="100" fill="white"/>
</clipPath>
</defs>
</svg>
